<svg width="24" height="24" viewBox="0 0 24 24" fill="none" xmlns="http://www.w3.org/2000/svg">
<g clip-path="url(#clip0_92_4748)">
<path d="M11.5386 0.501958L12.5319 0.498443C13.2608 0.495611 13.8227 0.649699 14.3493 1.17686C15.021 1.84923 15.0128 2.53331 15.0122 3.41992L15.0119 8.21376H13.4698L13.4696 3.25761C13.4741 2.12166 13.4261 2.02532 12.1566 2.02497L3.51586 2.02454C3.34246 2.02443 3.16206 2.01456 2.98957 2.03068C2.11587 2.11232 2.30847 3.16913 2.30873 3.78844L2.30896 19.9823C2.30888 20.7942 2.07995 21.6112 3.1942 21.6282C3.89425 21.639 4.59601 21.6283 5.29624 21.6283L12.4042 21.6291C13.291 21.6289 13.4709 21.5281 13.4698 20.6122V15.5519H15.0119L15.0123 20.4386C15.0124 20.7882 15.0281 21.1538 14.953 21.4974C14.733 22.5037 13.8848 23.135 12.8658 23.1445L3.83689 23.145C3.42767 23.1452 2.97948 23.1792 2.57651 23.1026C1.56303 22.9099 0.764831 21.9415 0.759365 20.913L0.760889 3.11916C0.760523 2.88101 0.746887 2.63351 0.780117 2.39737C0.910701 1.46948 1.65504 0.730839 2.56709 0.554571C2.96943 0.47681 3.4136 0.501738 3.82241 0.5017L11.5386 0.501958Z" fill="#BA0C2F"/>
<path d="M17.911 6.63849C18.5106 6.63779 18.96 7.26699 19.3828 7.68554L22.6304 10.8827C23.5778 11.8189 23.4833 11.9583 22.5478 12.879L18.8192 16.5346C18.5833 16.7678 18.3551 17.0529 17.9975 17.0701C17.3895 17.0992 16.9856 16.3915 17.321 15.8769C17.4225 15.7212 17.5677 15.5891 17.6984 15.4578L19.7716 13.4074C20.044 13.142 20.3428 12.8956 20.5997 12.6155C20.1429 12.6023 19.6815 12.6151 19.2242 12.6152L16.4807 12.6155L8.40561 12.6157C8.05081 12.6156 7.67656 12.6396 7.32519 12.5925C6.7341 12.5132 6.48233 11.7148 6.90069 11.302C7.1937 11.0129 7.63072 11.057 8.00825 11.0576L20.563 11.0578C20.29 10.7716 19.959 10.4579 19.6715 10.1788L17.8439 8.41435C17.66 8.23608 17.4598 8.05697 17.3075 7.85011C16.9332 7.3418 17.324 6.68185 17.911 6.63849Z" fill="#BA0C2F"/>
</g>
<defs>
<clipPath id="clip0_92_4748">
<rect width="24" height="24" fill="white"/>
</clipPath>
</defs>
</svg>
