<svg width="21" height="21" viewBox="0 0 21 21" fill="none" xmlns="http://www.w3.org/2000/svg">
<path d="M3.75488 2.5L4.62305 5.625H19.0322L16.8584 13.4678C16.7561 13.8364 16.536 14.162 16.2314 14.3936C15.9649 14.5962 15.6462 14.7171 15.3145 14.7441L15.1719 14.75H7.4502C7.06783 14.7498 6.69596 14.624 6.3916 14.3926C6.12539 14.1901 5.92346 13.9165 5.80859 13.6045L5.76465 13.4678L2.99512 3.5H1.5V2.5H3.75488ZM6.72754 13.2002L6.76953 13.3154C6.82061 13.4257 6.89845 13.5223 6.99609 13.5967C7.12654 13.6959 7.28631 13.7499 7.4502 13.75H15.1719L15.2939 13.7402C15.414 13.7205 15.5281 13.6711 15.626 13.5967C15.7564 13.4975 15.8507 13.3581 15.8945 13.2002L17.7178 6.625H4.90039L6.72754 13.2002Z" fill="white"/>
<path d="M6.69306 13.9949C6.47565 13.8296 6.31838 13.5976 6.24531 13.3344L4.24219 6.125H18.3742L16.3758 13.3344C16.3027 13.5977 16.1453 13.8298 15.9277 13.9952C15.7101 14.1605 15.4444 14.2501 15.1711 14.25H7.44922C7.17607 14.2499 6.91048 14.1603 6.69306 13.9949Z" fill="white"/>
<path d="M7.125 18.4688C7.72906 18.4688 8.21875 17.9791 8.21875 17.375C8.21875 16.7709 7.72906 16.2812 7.125 16.2812C6.52094 16.2812 6.03125 16.7709 6.03125 17.375C6.03125 17.9791 6.52094 18.4688 7.125 18.4688Z" fill="white"/>
<path d="M15.25 18.4688C15.8541 18.4688 16.3438 17.9791 16.3438 17.375C16.3438 16.7709 15.8541 16.2812 15.25 16.2812C14.6459 16.2812 14.1562 16.7709 14.1562 17.375C14.1562 17.9791 14.6459 18.4688 15.25 18.4688Z" fill="white"/>
</svg>
