<svg width="20" height="21" viewBox="0 0 20 21" fill="none" xmlns="http://www.w3.org/2000/svg">
<path d="M10 13C12.7614 13 15 10.7614 15 8C15 5.23858 12.7614 3 10 3C7.23858 3 5 5.23858 5 8C5 10.7614 7.23858 13 10 13Z" fill="white"/>
<path d="M14.5 8C14.5 5.51472 12.4853 3.5 10 3.5C7.51472 3.5 5.5 5.51472 5.5 8C5.5 10.4853 7.51472 12.5 10 12.5C12.4853 12.5 14.5 10.4853 14.5 8ZM15.5 8C15.5 11.0376 13.0376 13.5 10 13.5C6.96243 13.5 4.5 11.0376 4.5 8C4.5 4.96243 6.96243 2.5 10 2.5C13.0376 2.5 15.5 4.96243 15.5 8Z" fill="white"/>
<path d="M2.5 17.375C4.01328 14.7602 6.76172 13 10 13C13.2383 13 15.9867 14.7602 17.5 17.375" fill="white"/>
<path d="M10 12.5C13.4291 12.5 16.3363 14.3667 17.9326 17.125L18.3672 17.875H1.63281L2.06738 17.125L2.2207 16.8682C3.84576 14.2512 6.67817 12.5 10 12.5ZM10 13.5C7.27275 13.5 4.91296 14.8252 3.42188 16.875H16.5781C15.087 14.8252 12.7272 13.5 10 13.5Z" fill="white"/>
</svg>
