<svg width="19" height="19" viewBox="0 0 19 19" fill="none" xmlns="http://www.w3.org/2000/svg">
<path d="M13.8766 4.31194L6.40254 17.2574C6.39207 17.2806 6.37927 17.3028 6.36473 17.3237C5.89414 18.1218 5.14202 18.6587 4.3073 18.8826C3.47316 19.106 2.55468 19.0164 1.74788 18.5615C1.72345 18.5499 1.70076 18.5365 1.67924 18.5208C0.885821 18.0491 0.351832 17.3004 0.129046 16.4698C-0.0972301 15.6252 -0.00241515 14.6933 0.467588 13.8789L0.481548 13.8563L7.9632 0.89744L7.84396 0.828219C7.63164 0.705484 7.55951 0.433836 7.68225 0.22152C7.80499 0.0092044 8.07663 -0.0629248 8.28895 0.0598111L14.4397 3.61101C14.652 3.73375 14.7242 4.00539 14.6014 4.21771C14.4787 4.43002 14.207 4.50215 13.9947 4.37942L13.8766 4.31194ZM18.9995 11.0781C18.9995 11.9838 18.6325 12.8034 18.0386 13.3967C17.4453 13.99 16.6251 14.3571 15.72 14.3571C14.8149 14.3571 13.9947 13.99 13.4014 13.3967C12.8081 12.8034 12.441 11.9832 12.441 11.0781C12.441 9.0905 13.8662 7.58975 15.0447 6.34901C15.161 6.22685 15.2744 6.10761 15.3948 5.97789C15.5618 5.79873 15.8427 5.78826 16.0225 5.95521L16.0475 5.98022C16.1673 6.10877 16.2802 6.22802 16.3953 6.34901C17.5738 7.58975 18.9995 9.0905 18.9995 11.0781ZM17.4098 12.7673C17.842 12.3351 18.1096 11.7378 18.1096 11.0781C18.1096 9.44242 16.8194 8.08418 15.7526 6.96094L15.7206 6.92721L15.6886 6.96094C14.6218 8.08418 13.3316 9.44242 13.3316 11.0781C13.3316 11.7378 13.5992 12.3351 14.0314 12.7673C14.4636 13.1995 15.0609 13.4671 15.7206 13.4671C16.3808 13.4671 16.977 13.1995 17.4098 12.7673ZM13.1094 3.8687L8.73161 1.34069L1.24996 14.2995L1.23658 14.3245C0.889892 14.9254 0.820672 15.6141 0.988779 16.2406C1.15456 16.8601 1.55127 17.4162 2.13994 17.764L2.16262 17.7762C2.76292 18.1229 3.45222 18.1922 4.0787 18.024C4.7046 17.8565 5.26709 17.4517 5.61377 16.8502L13.1094 3.8687Z" fill="white"/>
</svg>
