<svg width="10" height="10" viewBox="0 0 10 10" fill="none" xmlns="http://www.w3.org/2000/svg">
<path d="M5 0C6.0559 1.25914e-08 7.08469 0.334275 7.93893 0.954915C8.79316 1.57556 9.42899 2.4507 9.75528 3.45492C10.0816 4.45913 10.0816 5.54087 9.75528 6.54509C9.42899 7.5493 8.79316 8.42445 7.93893 9.04508C7.08469 9.66573 6.0559 10 5 10C3.9441 10 2.91531 9.66572 2.06107 9.04508C1.20684 8.42444 0.571007 7.5493 0.244717 6.54508C-0.0815726 5.54087 -0.0815724 4.45913 0.244718 3.45491L1.41506 3.83518C1.16907 4.59225 1.16907 5.40775 1.41506 6.16482C1.66104 6.92188 2.14038 7.58164 2.78438 8.04953C3.42838 8.51743 4.20397 8.76943 5 8.76943C5.79603 8.76943 6.57162 8.51743 7.21562 8.04953C7.85962 7.58164 8.33896 6.92188 8.58494 6.16482C8.83093 5.40775 8.83093 4.59225 8.58494 3.83518C8.33896 3.07812 7.85962 2.41836 7.21562 1.95047C6.57162 1.48257 5.79603 1.23057 5 1.23057V0Z" fill="black"/>
</svg>
