<svg width="16" height="14" viewBox="0 0 16 14" fill="none" xmlns="http://www.w3.org/2000/svg">
<path opacity="0.6" d="M7.89355 2.12995C9.32393 0.312948 11.6775 -0.267929 13.3311 0.632883L7.85449 6.10945L5.34863 3.60359L4.47656 4.47663L3.60449 5.3487L6.9834 8.72663L7.85547 9.5987L8.72754 8.72663L14.9111 2.54109C15.1091 3.08589 15.2236 3.72911 15.2236 4.47663C15.2236 7.67643 12.863 10.6597 8.2666 13.4698C8.15373 13.5387 8.02464 13.5753 7.89355 13.5753C7.76244 13.5752 7.63337 13.5388 7.52051 13.4698C2.92351 10.659 0.564453 7.6764 0.564453 4.47663C0.564524 -0.0742767 5.51073 -0.896187 7.89355 2.12995Z" fill="#ABB2B6"/>
</svg>
