<svg width="33" height="33" viewBox="0 0 33 33" fill="none" xmlns="http://www.w3.org/2000/svg">
<g clip-path="url(#clip0_100_1955)">
<path d="M26.2743 14.085C26.3807 13.8229 26.2536 13.5241 25.9911 13.418C25.7277 13.3109 25.4294 13.4391 25.3226 13.7008C24.8738 14.8089 24.2402 15.9052 23.4395 16.9602C22.8048 17.7954 22.5334 18.8889 22.6943 19.9609C23.1092 22.6646 22.8081 25.1838 21.7981 27.4498C20.9659 29.3306 19.8938 30.6294 19.4393 30.8939C19.3984 30.5998 19.4459 29.9633 19.485 29.4363C19.6162 27.6809 19.8143 25.0269 18.6993 22.2034C18.5441 21.8182 18.3648 21.4278 18.164 21.038C17.6517 20.0703 16.6938 19.493 15.6015 19.493H15.5977C14.5063 19.494 13.5513 20.0722 13.0432 21.0375C12.8584 21.3851 12.6833 21.7665 12.506 22.2066C11.392 25.0274 11.5905 27.6809 11.7213 29.4368C11.7599 29.953 11.8064 30.573 11.7698 30.8751C11.2899 30.573 10.2159 29.2752 9.40298 27.4498C8.1469 24.6201 8.22782 21.8163 8.51761 19.9599C8.6785 18.8894 8.40706 17.7959 7.77243 16.9607C4.883 13.1535 4.28507 8.89306 6.35077 6.83047C8.19395 4.99382 11.8022 5.24324 15.3286 7.45051C15.3319 7.45239 15.3362 7.45333 15.3394 7.45521C16.3189 8.24107 17.2932 9.0227 18.2731 9.80386C18.3677 9.87949 18.4806 9.91613 18.593 9.91613C18.7435 9.91613 18.8931 9.8499 18.9943 9.72354C19.1712 9.5023 19.135 9.18006 18.9134 9.00344C18.1117 8.36414 17.3129 7.72296 16.5123 7.08083C17.0057 6.8051 17.5011 6.56319 17.9918 6.36308C18.2543 6.25598 18.3799 5.95677 18.2726 5.69512C18.1654 5.43348 17.8657 5.30666 17.6032 5.41423C16.9394 5.68479 16.269 6.02206 15.6062 6.41804C11.7476 4.1079 7.76538 3.97403 5.62535 6.1052C3.15319 8.57364 3.69984 13.2921 6.95481 17.5798C7.42337 18.1966 7.62331 19.0083 7.50334 19.8044C7.19285 21.7942 7.1077 24.808 8.46539 27.8655C9.13812 29.3762 10.9277 32.35 12.1677 31.9179C12.9172 31.6562 12.8489 30.7431 12.7454 29.3607C12.6212 27.6978 12.4331 25.1852 13.46 22.5857C13.6223 22.1827 13.7832 21.8332 13.9517 21.5157C14.28 20.8914 14.8963 20.5184 15.5996 20.518H15.602C16.3067 20.518 16.9253 20.8914 17.2541 21.5124C17.4385 21.8694 17.6041 22.2306 17.7462 22.5829C18.7741 25.1847 18.5859 27.6973 18.4618 29.3602C18.3587 30.7431 18.29 31.6562 19.0371 31.9169C19.1312 31.9498 19.2267 31.9658 19.3231 31.9658C20.877 31.9658 22.7178 27.9078 22.7366 27.865C23.8271 25.4182 24.1545 22.7064 23.709 19.8068C23.5891 19.0078 23.7885 18.1961 24.2576 17.5793C25.1133 16.452 25.7917 15.2762 26.2748 14.085H26.2743Z" fill="#ABB2B6"/>
<path d="M19.8629 6.11254C22.6639 6.11254 24.9422 8.38792 24.9422 11.1842C24.9422 11.4675 25.1718 11.6967 25.4554 11.6967C25.7391 11.6967 25.9687 11.4675 25.9687 11.1842C25.9687 8.38792 28.2475 6.11254 31.048 6.11254C31.3312 6.11254 31.5613 5.88331 31.5613 5.60006C31.5613 5.31681 31.3317 5.08758 31.048 5.08758C28.247 5.08758 25.9687 2.81221 25.9687 0.0158949C25.9687 -0.267353 25.7391 -0.496582 25.4554 -0.496582C25.1718 -0.496582 24.9422 -0.267353 24.9422 0.0158949C24.9422 2.81221 22.6634 5.08758 19.8629 5.08758C19.5797 5.08758 19.3496 5.31681 19.3496 5.60006C19.3496 5.88331 19.5792 6.11254 19.8629 6.11254ZM25.4554 2.46179C26.0712 3.86018 27.1979 4.98518 28.598 5.60006C27.1979 6.21494 26.0708 7.33995 25.4554 8.73834C24.8396 7.33995 23.7129 6.21494 22.3129 5.60006C23.7129 4.98518 24.8401 3.86018 25.4554 2.46179Z" fill="#ABB2B6"/>
</g>
<defs>
<clipPath id="clip0_100_1955">
<rect width="32.0571" height="32.0571" fill="white" transform="translate(0.166992)"/>
</clipPath>
</defs>
</svg>
