<svg width="21" height="21" viewBox="0 0 21 21" fill="none" xmlns="http://www.w3.org/2000/svg">
<path d="M1.5 3H3.375L6.24609 13.3344C6.31916 13.5976 6.47643 13.8296 6.69384 13.9949C6.91126 14.1603 7.17685 14.2499 7.45 14.25H15.1719C15.4452 14.2501 15.7109 14.1605 15.9285 13.9952C16.1461 13.8298 16.3035 13.5977 16.3766 13.3344L18.375 6.125H4.24297" stroke="white" stroke-linecap="square" stroke-linejoin="round"/>
<path d="M7.125 18.4688C7.72906 18.4688 8.21875 17.9791 8.21875 17.375C8.21875 16.7709 7.72906 16.2812 7.125 16.2812C6.52094 16.2812 6.03125 16.7709 6.03125 17.375C6.03125 17.9791 6.52094 18.4688 7.125 18.4688Z" fill="white"/>
<path d="M15.25 18.4688C15.8541 18.4688 16.3438 17.9791 16.3438 17.375C16.3438 16.7709 15.8541 16.2812 15.25 16.2812C14.6459 16.2812 14.1562 16.7709 14.1562 17.375C14.1562 17.9791 14.6459 18.4688 15.25 18.4688Z" fill="white"/>
</svg>
