<svg width="21" height="21" viewBox="0 0 21 21" fill="none" xmlns="http://www.w3.org/2000/svg">
<path d="M0.5 10.5005C0.5 10.5005 5.51392 10.5005 8.00038 8.00038C10.4868 5.50025 10.5005 0.5 10.5005 0.5C10.5005 0.5 10.5413 5.04913 13.0006 8.00038C15.0841 10.5005 20.501 10.5005 20.501 10.5005C20.501 10.5005 15.8984 10.5168 13.0006 13.0006C10.6744 14.9945 10.4684 18.5786 10.4804 19.9483C10.5008 20.296 10.5005 20.501 10.5005 20.501C10.5005 20.501 10.4834 20.296 10.4804 19.9483C10.4001 18.5797 9.99944 14.9997 8.00038 13.0006C5.50025 10.5005 0.5 10.5005 0.5 10.5005Z" fill="white"/>
<path d="M11.251 0.5C11.2511 0.506519 11.2506 0.517481 11.251 0.532227C11.2518 0.561696 11.2531 0.607115 11.2559 0.666992C11.2613 0.787275 11.2719 0.966018 11.292 1.19043C11.3322 1.63988 11.4111 2.27027 11.5625 2.98828C11.8685 4.43937 12.4593 6.17906 13.5771 7.52051L13.748 7.70898C14.6459 8.62833 16.1836 9.16256 17.6748 9.45117C18.4452 9.60028 19.1564 9.67631 19.6758 9.71387C19.9348 9.73259 20.1447 9.74149 20.2881 9.74609C20.3597 9.74839 20.415 9.74945 20.4512 9.75C20.4692 9.75027 20.4828 9.74994 20.4912 9.75C20.4953 9.75003 20.4983 9.75097 20.5 9.75098L20.5039 11.251H20.4648C20.4351 11.2516 20.3887 11.2534 20.3281 11.2559C20.2066 11.2608 20.0262 11.2699 19.7998 11.2891C19.3463 11.3274 18.7112 11.4038 17.9902 11.5537C16.6238 11.8378 15.015 12.3736 13.7393 13.3652L13.4883 13.5703C12.4853 14.4302 11.9095 15.6616 11.5898 16.8965C11.2733 18.1195 11.2254 19.2803 11.2305 19.9307C11.2402 20.1008 11.2455 20.2378 11.248 20.335C11.2494 20.386 11.2497 20.427 11.25 20.4551C11.2502 20.4687 11.25 20.4795 11.25 20.4873C11.25 20.4912 11.251 20.4947 11.251 20.4971V20.502L9.75293 20.5635V20.5576C9.75273 20.5551 9.75225 20.5518 9.75195 20.5479C9.75133 20.5395 9.74999 20.5281 9.74902 20.5137C9.74709 20.4848 9.74474 20.4436 9.74219 20.3916C9.73744 20.2948 9.73341 20.1595 9.73145 19.9922L9.68652 19.4092C9.62186 18.7424 9.49227 17.8446 9.23633 16.9092C8.91343 15.7291 8.40599 14.5553 7.62891 13.6982L7.46973 13.5312C6.37919 12.4407 4.68443 11.8526 3.16602 11.5488C2.42111 11.3998 1.74828 11.3245 1.2627 11.2871C1.02076 11.2685 0.826497 11.2594 0.694336 11.2549C0.62857 11.2526 0.577873 11.2515 0.544922 11.251H0.5V9.75098C0.501473 9.75097 0.505269 9.75003 0.508789 9.75C0.516332 9.74994 0.52863 9.75027 0.544922 9.75C0.577948 9.74946 0.628354 9.74836 0.694336 9.74609C0.826858 9.74154 1.02193 9.73249 1.26465 9.71387C1.75135 9.67651 2.42515 9.60113 3.1709 9.45215C4.69165 9.14832 6.38564 8.56073 7.46875 7.47168L7.66602 7.25977C8.62582 6.16888 9.16082 4.5893 9.44727 3.16504C9.59708 2.42004 9.67351 1.74746 9.71191 1.26172C9.73105 1.01955 9.74023 0.824653 9.74512 0.692383C9.74755 0.626573 9.74937 0.575956 9.75 0.542969C9.75031 0.526787 9.74992 0.514371 9.75 0.506836C9.75004 0.503392 9.75097 0.500506 9.75098 0.499023L11.25 0.493164L11.251 0.5ZM10.5381 4.9502C10.1799 6.09674 9.63304 7.29791 8.78613 8.25781L8.53223 8.5293C7.57384 9.49295 6.31041 10.106 5.09375 10.501C6.30829 10.8959 7.56917 11.5096 8.53027 12.4707L8.7373 12.6875C9.51807 13.5474 10.0455 14.605 10.4082 15.6377C10.8132 14.4966 11.4636 13.3309 12.5127 12.4316L12.8145 12.1846C13.7803 11.4328 14.8772 10.918 15.9238 10.5625C14.7469 10.2031 13.5323 9.64158 12.6631 8.74609L12.4248 8.48047C11.5235 7.39888 10.9303 6.13598 10.5381 4.9502Z" fill="white"/>
</svg>
